<svg width="142" height="30" viewBox="0 0 142 30" fill="none" xmlns="http://www.w3.org/2000/svg">
<g filter="url(#filter0_d_201_2130)">
<path d="M9.058 17.568H14.882V21H4.612V2.748H9.058V17.568ZM30.6786 13.512C30.6786 13.928 30.6526 14.3613 30.6006 14.812H20.5386C20.608 15.7133 20.894 16.4067 21.3966 16.892C21.9166 17.36 22.5493 17.594 23.2946 17.594C24.404 17.594 25.1753 17.126 25.6086 16.19H30.3406C30.098 17.1433 29.656 18.0013 29.0146 18.764C28.3906 19.5267 27.602 20.1247 26.6486 20.558C25.6953 20.9913 24.6293 21.208 23.4506 21.208C22.0293 21.208 20.764 20.9047 19.6546 20.298C18.5453 19.6913 17.6786 18.8247 17.0546 17.698C16.4306 16.5713 16.1186 15.254 16.1186 13.746C16.1186 12.238 16.422 10.9207 17.0286 9.794C17.6526 8.66733 18.5193 7.80067 19.6286 7.194C20.738 6.58733 22.012 6.284 23.4506 6.284C24.8546 6.284 26.1026 6.57867 27.1946 7.168C28.2866 7.75733 29.136 8.598 29.7426 9.69C30.3666 10.782 30.6786 12.056 30.6786 13.512ZM26.1286 12.342C26.1286 11.5793 25.8686 10.9727 25.3486 10.522C24.8286 10.0713 24.1786 9.846 23.3986 9.846C22.6533 9.846 22.0206 10.0627 21.5006 10.496C20.998 10.9293 20.686 11.5447 20.5646 12.342H26.1286ZM32.1401 13.746C32.1401 12.238 32.4434 10.9207 33.0501 9.794C33.6741 8.66733 34.5321 7.80067 35.6241 7.194C36.7334 6.58733 37.9988 6.284 39.4201 6.284C41.2401 6.284 42.7568 6.76067 43.9701 7.714C45.2008 8.66733 46.0068 10.0107 46.3881 11.744H41.6561C41.2574 10.6347 40.4861 10.08 39.3421 10.08C38.5274 10.08 37.8774 10.4007 37.3921 11.042C36.9068 11.666 36.6641 12.5673 36.6641 13.746C36.6641 14.9247 36.9068 15.8347 37.3921 16.476C37.8774 17.1 38.5274 17.412 39.3421 17.412C40.4861 17.412 41.2574 16.8573 41.6561 15.748H46.3881C46.0068 17.4467 45.2008 18.7813 43.9701 19.752C42.7394 20.7227 41.2228 21.208 39.4201 21.208C37.9988 21.208 36.7334 20.9047 35.6241 20.298C34.5321 19.6913 33.6741 18.8247 33.0501 17.698C32.4434 16.5713 32.1401 15.254 32.1401 13.746ZM56.8523 17.23V21H54.5903C52.9783 21 51.7216 20.61 50.8203 19.83C49.919 19.0327 49.4683 17.7413 49.4683 15.956V10.184H47.7003V6.492H49.4683V2.956H53.9143V6.492H56.8263V10.184H53.9143V16.008C53.9143 16.4413 54.0183 16.7533 54.2263 16.944C54.4343 17.1347 54.781 17.23 55.2663 17.23H56.8523ZM58.4448 13.72C58.4448 12.2293 58.7221 10.9207 59.2768 9.794C59.8488 8.66733 60.6201 7.80067 61.5908 7.194C62.5615 6.58733 63.6448 6.284 64.8408 6.284C65.8635 6.284 66.7561 6.492 67.5188 6.908C68.2988 7.324 68.8968 7.87 69.3128 8.546V6.492H73.7588V21H69.3128V18.946C68.8795 19.622 68.2728 20.168 67.4928 20.584C66.7301 21 65.8375 21.208 64.8148 21.208C63.6361 21.208 62.5615 20.9047 61.5908 20.298C60.6201 19.674 59.8488 18.7987 59.2768 17.672C58.7221 16.528 58.4448 15.2107 58.4448 13.72ZM69.3128 13.746C69.3128 12.6367 69.0008 11.7613 68.3768 11.12C67.7701 10.4787 67.0248 10.158 66.1408 10.158C65.2568 10.158 64.5028 10.4787 63.8788 11.12C63.2721 11.744 62.9688 12.6107 62.9688 13.72C62.9688 14.8293 63.2721 15.7133 63.8788 16.372C64.5028 17.0133 65.2568 17.334 66.1408 17.334C67.0248 17.334 67.7701 17.0133 68.3768 16.372C69.0008 15.7307 69.3128 14.8553 69.3128 13.746ZM81.4213 8.91C81.9413 8.11267 82.5913 7.48867 83.3713 7.038C84.1513 6.57 85.0179 6.336 85.9713 6.336V11.042H84.7493C83.6399 11.042 82.8079 11.2847 82.2533 11.77C81.6986 12.238 81.4213 13.07 81.4213 14.266V21H76.9753V6.492H81.4213V8.91ZM90.3324 4.984C89.5524 4.984 88.911 4.75867 88.4084 4.308C87.923 3.84 87.6804 3.268 87.6804 2.592C87.6804 1.89867 87.923 1.32667 88.4084 0.875999C88.911 0.407999 89.5524 0.173998 90.3324 0.173998C91.095 0.173998 91.719 0.407999 92.2044 0.875999C92.707 1.32667 92.9584 1.89867 92.9584 2.592C92.9584 3.268 92.707 3.84 92.2044 4.308C91.719 4.75867 91.095 4.984 90.3324 4.984ZM92.5424 6.492V21H88.0964V6.492H92.5424ZM110.09 6.492V21H105.644V19.024C105.194 19.6653 104.578 20.1853 103.798 20.584C103.036 20.9653 102.186 21.156 101.25 21.156C100.141 21.156 99.1617 20.9133 98.3123 20.428C97.463 19.9253 96.8043 19.206 96.3363 18.27C95.8683 17.334 95.6343 16.2333 95.6343 14.968V6.492H100.054V14.37C100.054 15.3407 100.306 16.0947 100.808 16.632C101.311 17.1693 101.987 17.438 102.836 17.438C103.703 17.438 104.388 17.1693 104.89 16.632C105.393 16.0947 105.644 15.3407 105.644 14.37V6.492H110.09ZM131.796 6.336C133.599 6.336 135.029 6.882 136.086 7.974C137.161 9.066 137.698 10.5827 137.698 12.524V21H133.278V13.122C133.278 12.186 133.027 11.4667 132.524 10.964C132.039 10.444 131.363 10.184 130.496 10.184C129.629 10.184 128.945 10.444 128.442 10.964C127.957 11.4667 127.714 12.186 127.714 13.122V21H123.294V13.122C123.294 12.186 123.043 11.4667 122.54 10.964C122.055 10.444 121.379 10.184 120.512 10.184C119.645 10.184 118.961 10.444 118.458 10.964C117.973 11.4667 117.73 12.186 117.73 13.122V21H113.284V6.492H117.73V8.312C118.181 7.70533 118.77 7.22867 119.498 6.882C120.226 6.518 121.049 6.336 121.968 6.336C123.06 6.336 124.031 6.57 124.88 7.038C125.747 7.506 126.423 8.17333 126.908 9.04C127.411 8.24267 128.095 7.59267 128.962 7.09C129.829 6.58733 130.773 6.336 131.796 6.336Z" fill="#2B3674"/>
</g>
<defs>
<filter id="filter0_d_201_2130" x="0.611816" y="0.174011" width="141.086" height="29.034" filterUnits="userSpaceOnUse" color-interpolation-filters="sRGB">
<feFlood flood-opacity="0" result="BackgroundImageFix"/>
<feColorMatrix in="SourceAlpha" type="matrix" values="0 0 0 0 0 0 0 0 0 0 0 0 0 0 0 0 0 0 127 0" result="hardAlpha"/>
<feOffset dy="4"/>
<feGaussianBlur stdDeviation="2"/>
<feComposite in2="hardAlpha" operator="out"/>
<feColorMatrix type="matrix" values="0 0 0 0 0 0 0 0 0 0 0 0 0 0 0 0 0 0 0.25 0"/>
<feBlend mode="normal" in2="BackgroundImageFix" result="effect1_dropShadow_201_2130"/>
<feBlend mode="normal" in="SourceGraphic" in2="effect1_dropShadow_201_2130" result="shape"/>
</filter>
</defs>
</svg>
