<svg width="80" height="81" viewBox="0 0 80 81" fill="none" xmlns="http://www.w3.org/2000/svg">
<g clip-path="url(#clip0_451_949)">
<path d="M33.3332 53.8333H46.6665C48.4998 53.8333 49.9998 52.3333 49.9998 50.5V33.8333H55.2998C58.2665 33.8333 59.7665 30.2333 57.6665 28.1333L42.3665 12.8333C41.0665 11.5333 38.9665 11.5333 37.6665 12.8333L22.3665 28.1333C20.2665 30.2333 21.7332 33.8333 24.6998 33.8333H29.9998V50.5C29.9998 52.3333 31.4998 53.8333 33.3332 53.8333ZM19.9998 60.5H59.9998C61.8332 60.5 63.3332 62 63.3332 63.8333C63.3332 65.6667 61.8332 67.1667 59.9998 67.1667H19.9998C18.1665 67.1667 16.6665 65.6667 16.6665 63.8333C16.6665 62 18.1665 60.5 19.9998 60.5Z" fill="#4318FF"/>
</g>
<defs>
<clipPath id="clip0_451_949">
<rect width="80" height="80" fill="white" transform="translate(0 0.5)"/>
</clipPath>
</defs>
</svg>
